<svg xmlns="http://www.w3.org/2000/svg" viewBox="0 0 330 180" class="svg-logo" width="181" height="60" style="height: auto;">
    <g data-element="wrapper" transform="translate(-300 -250) scale(1.5500000000000102)">
        <g>
            <g data-element="icon" transform="scale(0.16278542272224653) translate(1000 1100)">
                <path id="color_x5F_1_43_" d="M485.373,31.732c7.049,46.523,5.886,87.345,1.476,120.625    c-44.106-57.326-113.386-94.279-191.308-94.279c-133.247,0-241.263,108.019-241.263,241.266    c0,133.245,108.016,241.261,241.263,241.261c124.366,0,231.768-92.72,244.862-213.604c17-102-12.188-178.601-12.188-178.601    s2.32,130.011-40.343,176.614c-9.109-6.325-16.122-4.579-16.122-4.579c12.458,7.573,16.642,14.34,17.486,15.799    c-15.539,30.373-41.332,51.254-41.332,51.254c-29.299-1.522-31.964-25.115-31.964-25.115c22.452-24.353,38.173-45.158,38.173-45.158    c3.542-0.193,6.827,0.115,9.853,0.771C539.619,156.688,485.373,31.732,485.373,31.732z M310.253,458.207    c14.904-0.357,29.378-1.876,43.192-5.394c-18.196,6.766-37.88,10.471-58.433,10.471c-92.594,0-167.657-75.064-167.657-167.658    c0-35.318,10.933-68.082,29.582-95.106c-13.464,24.741-21.372,49.534-23.163,79.635    C127.848,379.716,196.616,460.924,310.253,458.207z M138.529,182.056c-15.774,28.987-25.039,58.035-27.137,93.299    c-6.947,116.652,73.626,211.794,206.765,208.613c17.462-0.417,34.419-2.196,50.604-6.319c-21.317,7.929-44.38,12.27-68.459,12.27    c-108.486,0-196.432-87.946-196.432-196.434C103.87,252.105,116.678,213.718,138.529,182.056z M303.091,514.012    c-121.869,0-220.665-98.795-220.665-220.664c0-46.485,14.39-89.607,38.936-125.175c-17.722,32.563-28.129,65.193-30.485,104.808    c-7.803,131.041,82.709,237.922,232.271,234.347c19.616-0.47,38.666-2.468,56.846-7.099    C356.047,509.136,330.138,514.012,303.091,514.012z M295.541,407.336c-59.645,0-107.995-48.348-107.995-107.992    c0-59.645,48.351-107.997,107.995-107.997s107.995,48.352,107.995,107.997C403.536,358.988,355.186,407.336,295.541,407.336z     M295.541,258.587c-22.509,0-40.754,18.247-40.754,40.755c0,22.509,18.245,40.754,40.754,40.754s40.755-18.245,40.755-40.754    C336.296,276.834,318.05,258.587,295.541,258.587z M295.541,311.973c-6.975,0-12.63-5.656-12.63-12.631    c0-6.975,5.655-12.631,12.63-12.631s12.63,5.656,12.63,12.631C308.171,306.316,302.516,311.973,295.541,311.973z M295.541,201.96    c-53.696,0-97.382,43.686-97.382,97.384c0,53.695,43.686,97.381,97.382,97.381s97.382-43.686,97.382-97.381    C392.923,245.646,349.237,201.96,295.541,201.96z M295.541,389.095c-49.489,0-89.752-40.263-89.752-89.751    c0-49.491,40.263-89.753,89.752-89.753s89.751,40.263,89.751,89.753C385.292,348.832,345.03,389.095,295.541,389.095z     M73.81,150.875c0,0,85.023-191.847,304.457-103.696C378.267,47.179,198.074-10.451,73.81,150.875z M516.573,449.125    c0,0-85.023,191.847-304.457,103.696C212.116,552.821,392.309,610.45,516.573,449.125z" fill="#1ED760"></path>
            </g>
            <text transform="translate(270 249.5)" fill="#1ED760" font-family="Graduate" font-size="64" data-element="company-name" dx="0 0 0 0">Demo</text>
            <text transform="translate(420 220)" fill="#1ED760" font-family="Lilita One" font-size="20" data-element="slogan" dx="0">®</text>
        </g>
    </g>
</svg>